# xmcd CD database file
#
# Track frame offsets:
#	150
#	51444
#	69156
#	96893
#	132473
#	146497
#	165121
#	193454
#	216973
#	239496
#	256569
#
# Disc length: 4178 seconds
#
# Revision: 0
# Processed by: cddbd v1.5.2PL0 Copyright (c) Steve Scherf et al.
# Submitted via: CDex 1.51
#
DISCID=9f10500b
DTITLE=Szakcsi-Lakatos Béla - Jazz Open - Pesti Lámpás
DYEAR=1900
DGENRE=Jazz
TTITLE0=Keleti csoda blues
TTITLE1=Elsõ Szerelem
TTITLE2=Szerelmes levelek
TTITLE3=Chopin után
TTITLE4=Õszi emlékek
TTITLE5=Tavaszi szél
TTITLE6=Hojeda, Hojeda
TTITLE7=Szerelem, Szerelem
TTITLE8=virágok vetélkedése
TTITLE9=Django
TTITLE10=Utoljára együtt
EXTD=
EXTT0=
EXTT1=
EXTT2=
EXTT3=
EXTT4=
EXTT5=
EXTT6=
EXTT7=
EXTT8=
EXTT9=
EXTT10=
PLAYORDER=
